<svg width="64" height="64" viewBox="0 0 64 64" fill="none" xmlns="http://www.w3.org/2000/svg">
<path d="M39.544 16.8053C37.576 16.7147 36.984 16.6987 32 16.6987C27.016 16.6987 26.4267 16.7173 24.4587 16.8053C19.3947 17.0373 17.0373 19.4347 16.8053 24.4587C16.7173 26.4267 16.696 27.016 16.696 32C16.696 36.984 16.7173 37.5733 16.8053 39.544C17.0373 44.5547 19.384 46.9653 24.4587 47.1973C26.424 47.2853 27.016 47.3067 32 47.3067C36.9867 47.3067 37.576 47.288 39.544 47.1973C44.608 46.968 46.9627 44.5627 47.1973 39.544C47.2853 37.576 47.304 36.984 47.304 32C47.304 27.016 47.2853 26.4267 47.1973 24.4587C46.9627 19.4373 44.6027 17.0373 39.544 16.8053ZM32 41.5867C26.7067 41.5867 22.4133 37.296 22.4133 32C22.4133 26.7067 26.7067 22.416 32 22.416C37.2933 22.416 41.5867 26.7067 41.5867 32C41.5867 37.2933 37.2933 41.5867 32 41.5867ZM41.9653 24.2773C40.728 24.2773 39.7253 23.2747 39.7253 22.0373C39.7253 20.8 40.728 19.7973 41.9653 19.7973C43.2027 19.7973 44.2053 20.8 44.2053 22.0373C44.2053 23.272 43.2027 24.2773 41.9653 24.2773ZM38.2213 32C38.2213 35.4373 35.4347 38.2213 32 38.2213C28.5653 38.2213 25.7787 35.4373 25.7787 32C25.7787 28.5627 28.5653 25.7787 32 25.7787C35.4347 25.7787 38.2213 28.5627 38.2213 32ZM32 0C14.328 0 0 14.328 0 32C0 49.672 14.328 64 32 64C49.672 64 64 49.672 64 32C64 14.328 49.672 0 32 0ZM50.5547 39.696C50.248 46.4827 46.4693 50.2427 39.6987 50.5547C37.7067 50.6453 37.0693 50.6667 32 50.6667C26.9307 50.6667 26.296 50.6453 24.304 50.5547C17.52 50.2427 13.7573 46.4773 13.4453 39.696C13.3547 37.7067 13.3333 37.0693 13.3333 32C13.3333 26.9307 13.3547 26.296 13.4453 24.304C13.7573 17.52 17.5227 13.7573 24.304 13.448C26.296 13.3547 26.9307 13.3333 32 13.3333C37.0693 13.3333 37.7067 13.3547 39.6987 13.448C46.4853 13.76 50.2507 17.5333 50.5547 24.304C50.6453 26.296 50.6667 26.9307 50.6667 32C50.6667 37.0693 50.6453 37.7067 50.5547 39.696Z" fill="white"/>
</svg>
